<?xml version="1.0" encoding="UTF-8" standalone="no"?>
<!DOCTYPE svg PUBLIC "-//W3C//DTD SVG 20010904//EN"
              "http://www.w3.org/TR/2001/REC-SVG-20010904/DTD/svg10.dtd">

<svg xmlns="http://www.w3.org/2000/svg"
     viewBox="0 0 512 512">
  <path id="Selection"
        fill="#1f2933" stroke="black" stroke-width="1"
        d="M 230.00,230.00
           C 230.00,230.00 28.00,230.00 28.00,230.00
             22.32,230.01 18.18,230.12 13.00,232.91
             -1.21,240.57 -4.87,261.91 6.21,273.91
             12.48,280.71 19.24,281.99 28.00,282.00
             28.00,282.00 230.00,282.00 230.00,282.00
             230.00,282.00 230.00,484.00 230.00,484.00
             230.01,492.76 231.29,499.52 238.09,505.79
             250.09,516.87 271.43,513.21 279.09,499.00
             281.88,493.82 281.99,489.68 282.00,484.00
             282.00,484.00 282.00,282.00 282.00,282.00
             282.00,282.00 484.00,282.00 484.00,282.00
             492.76,281.99 499.52,280.71 505.79,273.91
             516.87,261.91 513.21,240.57 499.00,232.91
             493.82,230.12 489.68,230.01 484.00,230.00
             484.00,230.00 282.00,230.00 282.00,230.00
             282.00,230.00 282.00,28.00 282.00,28.00
             281.99,19.24 280.71,12.48 273.91,6.21
             261.91,-4.87 240.57,-1.21 232.91,13.00
             230.12,18.18 230.01,22.32 230.00,28.00
             230.00,28.00 230.00,230.00 230.00,230.00 Z" />
</svg>
