<?xml version="1.0" encoding="UTF-8" standalone="no"?>
<!DOCTYPE svg PUBLIC "-//W3C//DTD SVG 20010904//EN"
              "http://www.w3.org/TR/2001/REC-SVG-20010904/DTD/svg10.dtd">

<svg xmlns="http://www.w3.org/2000/svg"
     viewBox="0 0 512 512">
  <path id="Selection #1"
        fill="#4c5f71" stroke="black" stroke-width="1"
        d="M 251.00,102.56
           C 240.43,106.25 238.12,113.65 238.00,124.00
             238.00,124.00 238.00,172.00 238.00,172.00
             238.00,172.00 238.00,251.00 238.00,251.00
             238.20,268.18 246.80,271.64 259.00,281.40
             259.00,281.40 298.00,312.60 298.00,312.60
             298.00,312.60 324.00,333.40 324.00,333.40
             331.07,339.05 337.36,344.24 347.00,340.89
             359.61,336.51 362.84,320.85 353.67,311.44
             353.67,311.44 333.00,294.60 333.00,294.60
             333.00,294.60 294.00,263.40 294.00,263.40
             290.09,260.27 276.88,250.52 275.02,246.96
             273.81,244.64 274.01,241.57 274.00,239.00
             274.00,239.00 274.00,124.00 274.00,124.00
             273.82,109.12 266.86,99.79 251.00,102.56 Z
           M 233.00,0.21
           C 233.00,0.21 216.00,2.44 216.00,2.44
             189.62,6.68 162.78,15.00 139.00,27.26
             76.77,59.35 28.82,116.55 9.58,184.00
             4.92,200.31 0.03,224.14 0.00,241.00
             0.00,241.00 0.00,271.00 0.00,271.00
             0.04,296.40 9.28,331.54 19.01,355.00
             48.35,425.73 110.32,481.40 184.00,502.42
             198.34,506.51 224.35,511.82 239.00,512.00
             239.00,512.00 271.00,512.00 271.00,512.00
             277.67,511.99 284.40,511.05 291.00,510.13
             323.78,505.58 354.25,495.65 383.00,479.15
             426.44,454.22 461.86,417.65 484.74,373.00
             498.48,346.19 511.64,303.20 512.00,273.00
             512.00,273.00 512.00,241.00 512.00,241.00
             512.00,241.00 510.28,222.00 510.28,222.00
             505.59,185.97 494.29,154.15 475.60,123.00
             466.63,108.05 454.23,91.38 442.00,79.00
             417.59,54.30 394.60,37.17 363.00,22.69
             337.19,10.87 299.47,0.04 271.00,0.21
             271.00,0.21 233.00,0.21 233.00,0.21 Z
           M 238.00,35.09
           C 238.00,35.09 254.00,35.09 254.00,35.09
             254.00,35.09 267.00,35.09 267.00,35.09
             282.79,35.02 307.91,40.02 323.00,45.00
             351.09,54.27 376.47,67.65 399.00,87.00
             421.63,106.43 440.82,130.25 454.19,157.00
             493.00,234.61 482.10,328.76 427.54,396.00
             407.20,421.07 383.39,439.15 355.00,454.11
             332.10,466.18 292.94,476.96 267.00,477.00
             267.00,477.00 243.00,477.00 243.00,477.00
             225.80,476.80 201.37,471.14 185.00,465.67
             164.88,458.94 145.26,448.91 128.00,436.57
             84.12,405.21 54.18,361.24 41.13,309.00
             38.47,298.37 35.13,279.76 35.00,269.00
             34.61,235.42 36.31,212.04 48.05,180.00
             70.53,118.70 118.01,71.43 179.00,48.42
             201.73,39.85 214.74,38.63 238.00,35.09 Z" />
</svg>
