<?xml version="1.0" encoding="UTF-8" standalone="no"?>
<!DOCTYPE svg PUBLIC "-//W3C//DTD SVG 20010904//EN"
              "http://www.w3.org/TR/2001/REC-SVG-20010904/DTD/svg10.dtd">

<svg xmlns="http://www.w3.org/2000/svg"
     viewBox="0 0 512 512">
  <path id="Selection #12"
        fill="#4c5f71" stroke="black" stroke-width="1"
        d="M 353.00,358.00
           C 353.00,358.00 353.00,417.00 353.00,417.00
             353.00,417.00 418.00,417.00 418.00,417.00
             418.00,417.00 418.00,358.00 418.00,358.00
             418.00,358.00 353.00,358.00 353.00,358.00 Z
           M 266.00,358.00
           C 266.00,358.00 266.00,417.00 266.00,417.00
             266.00,417.00 332.00,417.00 332.00,417.00
             332.00,417.00 332.00,358.00 332.00,358.00
             332.00,358.00 266.00,358.00 266.00,358.00 Z
           M 180.00,358.00
           C 180.00,358.00 180.00,417.00 180.00,417.00
             180.00,417.00 246.00,417.00 246.00,417.00
             246.00,417.00 246.00,358.00 246.00,358.00
             246.00,358.00 180.00,358.00 180.00,358.00 Z
           M 94.00,358.00
           C 94.00,358.00 94.00,417.00 94.00,417.00
             94.00,417.00 159.00,417.00 159.00,417.00
             159.00,417.00 159.00,358.00 159.00,358.00
             159.00,358.00 94.00,358.00 94.00,358.00 Z
           M 353.00,282.00
           C 353.00,282.00 353.00,340.00 353.00,340.00
             353.00,340.00 418.00,340.00 418.00,340.00
             418.00,340.00 418.00,282.00 418.00,282.00
             418.00,282.00 353.00,282.00 353.00,282.00 Z
           M 266.00,282.00
           C 266.00,282.00 266.00,340.00 266.00,340.00
             266.00,340.00 332.00,340.00 332.00,340.00
             332.00,340.00 332.00,282.00 332.00,282.00
             332.00,282.00 266.00,282.00 266.00,282.00 Z
           M 180.00,282.00
           C 180.00,282.00 180.00,340.00 180.00,340.00
             180.00,340.00 246.00,340.00 246.00,340.00
             246.00,340.00 246.00,282.00 246.00,282.00
             246.00,282.00 180.00,282.00 180.00,282.00 Z
           M 94.00,282.00
           C 94.00,282.00 94.00,340.00 94.00,340.00
             94.00,340.00 159.00,340.00 159.00,340.00
             159.00,340.00 159.00,282.00 159.00,282.00
             159.00,282.00 94.00,282.00 94.00,282.00 Z
           M 353.00,205.00
           C 353.00,205.00 353.00,263.00 353.00,263.00
             353.00,263.00 418.00,263.00 418.00,263.00
             418.00,263.00 418.00,205.00 418.00,205.00
             418.00,205.00 353.00,205.00 353.00,205.00 Z
           M 266.00,205.00
           C 266.00,205.00 266.00,263.00 266.00,263.00
             266.00,263.00 332.00,263.00 332.00,263.00
             332.00,263.00 332.00,205.00 332.00,205.00
             332.00,205.00 266.00,205.00 266.00,205.00 Z
           M 180.00,205.00
           C 180.00,205.00 180.00,263.00 180.00,263.00
             180.00,263.00 246.00,263.00 246.00,263.00
             246.00,263.00 246.00,205.00 246.00,205.00
             246.00,205.00 180.00,205.00 180.00,205.00 Z
           M 94.00,205.00
           C 94.00,205.00 94.00,263.00 94.00,263.00
             94.00,263.00 159.00,263.00 159.00,263.00
             159.00,263.00 159.00,205.00 159.00,205.00
             159.00,205.00 94.00,205.00 94.00,205.00 Z
           M 107.00,55.00
           C 93.33,55.00 81.22,53.83 68.00,58.03
             41.25,66.53 27.04,90.91 27.00,118.00
             27.00,118.00 27.00,450.00 27.00,450.00
             27.05,483.30 50.49,511.95 85.00,512.00
             85.00,512.00 220.00,512.00 220.00,512.00
             220.00,512.00 427.00,512.00 427.00,512.00
             460.10,511.95 484.62,484.36 485.00,452.00
             485.00,452.00 485.00,333.00 485.00,333.00
             485.00,333.00 485.00,118.00 485.00,118.00
             484.96,91.76 471.61,67.84 446.00,58.70
             433.19,54.12 423.20,55.00 410.00,55.00
             410.00,40.66 410.76,26.03 401.47,14.00
             385.66,-6.49 352.24,-4.64 339.34,18.00
             332.07,30.74 334.00,40.90 334.00,55.00
             334.00,55.00 296.00,55.00 296.00,55.00
             296.00,42.01 297.47,29.73 290.65,18.00
             277.23,-5.08 243.22,-6.55 227.63,15.00
             218.85,27.14 220.00,40.89 220.00,55.00
             220.00,55.00 183.00,55.00 183.00,55.00
             183.00,40.70 183.76,26.00 174.47,14.00
             157.75,-7.60 123.61,-3.96 111.13,20.00
             105.41,30.99 107.00,42.97 107.00,55.00 Z
           M 141.00,22.39
           C 157.25,20.23 160.98,32.57 161.00,46.00
             161.00,46.00 161.00,100.00 161.00,100.00
             160.99,109.16 159.56,120.67 149.00,123.44
             140.72,125.62 132.38,121.24 129.80,113.00
             128.90,110.11 129.00,106.99 129.00,104.00
             129.00,104.00 129.00,40.00 129.00,40.00
             129.11,31.08 132.08,25.27 141.00,22.39 Z
           M 255.00,22.33
           C 269.47,20.76 273.98,30.23 274.00,43.00
             274.00,43.00 274.00,103.00 274.00,103.00
             273.99,112.07 271.69,122.13 261.00,123.79
             246.28,126.08 242.02,114.09 242.00,102.00
             242.00,102.00 242.00,44.00 242.00,44.00
             242.02,33.78 243.71,25.15 255.00,22.33 Z
           M 368.00,22.39
           C 384.25,20.23 387.98,32.57 388.00,46.00
             388.00,46.00 388.00,100.00 388.00,100.00
             387.99,109.16 386.56,120.67 376.00,123.44
             367.72,125.62 359.38,121.24 356.80,113.00
             355.90,110.11 356.00,106.99 356.00,104.00
             356.00,104.00 356.00,40.00 356.00,40.00
             356.11,31.08 359.08,25.27 368.00,22.39 Z
           M 449.00,144.00
           C 449.00,144.00 449.00,446.00 449.00,446.00
             448.98,457.59 446.51,468.48 435.00,473.95
             428.99,476.81 418.78,476.00 412.00,476.00
             412.00,476.00 366.00,476.00 366.00,476.00
             366.00,476.00 90.00,476.00 90.00,476.00
             79.18,475.98 69.99,472.92 65.48,462.00
             62.41,454.58 63.00,445.87 63.00,438.00
             63.00,438.00 63.00,399.00 63.00,399.00
             63.00,399.00 63.00,144.00 63.00,144.00
             63.00,144.00 449.00,144.00 449.00,144.00 Z" />
</svg>
