<svg width="164" height="22" viewBox="0 0 164 22" fill="none" xmlns="http://www.w3.org/2000/svg">
    <path d="M6.045 18.185V3.815h4.615v14.37H6.045zm8.798 1.293V2.522c0-1.294-1.153-2.3-2.308-2.3H.131v3.593h1.731v14.37H.132v3.592H12.68c1.153 0 2.163-1.005 2.163-2.299zm12.98-5.317v4.024H22.92v-5.892h6.49V8.701h-6.49V3.815h4.904v3.018h4.039V.223H17.15v3.592h1.586v14.37H17.15v3.592h14.713v-7.616h-4.04zm12.116-5.46V3.815H44.7v4.886h-4.76zm9.087 9.484v-5.173c0-1.293-1.01-2.3-2.307-2.3 1.297 0 2.307-1.005 2.307-2.298V2.666c0-1.15-1.01-2.3-2.163-2.3H34.026V3.96H35.9v14.37h-1.874v3.448h7.644v-3.592h-1.586v-5.892h4.76v5.892h-1.732v3.592h7.5v-3.592h-1.586zm30.721-9.484V3.815h4.904v4.886h-4.904zm9.087 1.293V2.522c0-1.294-1.01-2.3-2.308-2.3H73.834v3.593h1.73v14.37h-1.73v3.592h7.5v-3.592h-1.587v-5.892h6.78c1.297 0 2.307-1.005 2.307-2.298zm7.355 8.191V3.815h1.731V.223h-7.5v3.592h1.731v14.37h-1.73v3.592h7.5v-3.592h-1.732zm14.28-4.024v4.024h-4.904v-5.892h6.49V8.701h-6.49V3.815h4.904v3.018h4.182V.223H99.796v3.592h1.586v14.37h-1.586v3.592h14.855v-7.616h-4.182zm11.826-5.46v3.592h3.318v5.892h-4.904V3.815h4.904v3.018h4.327V2.522c0-1.294-1.01-2.3-2.308-2.3h-8.653c-.577 0-1.155.289-1.443.575-.432.431-.865 1.007-.865 1.725v16.956c0 .718.288 1.294.865 1.725.433.43 1.01.574 1.586.574h10.818V8.701h-7.645zm20.337 5.46v4.024h-4.904v-5.892h6.491V8.701h-6.491V3.815h4.904v3.018h4.183V.223h-14.856v3.592h1.587v14.37h-1.587v3.592h14.856v-7.616h-4.183zm16.875 0v4.024h-4.758V3.815h1.73V.223h-7.645v3.592h1.731v14.37h-1.731v3.592h14.857v-7.616h-4.184zm-87.548 5.447V8.758h-8.943V3.84h4.761v3.038h4.326v-4.34c0-1.39-1.298-2.315-2.595-2.315h-8.51a2.281 2.281 0 0 0-2.307 2.315v9.836h8.942v5.932h-4.76v-4.051h-4.182v5.207c0 1.303 1.009 2.315 2.307 2.315h8.51c1.327 0 2.452-.868 2.452-2.17h-.001z" fill="#4C5F71"/>
</svg>
