<?xml version="1.0" encoding="UTF-8" standalone="no"?>
<!DOCTYPE svg PUBLIC "-//W3C//DTD SVG 20010904//EN"
              "http://www.w3.org/TR/2001/REC-SVG-20010904/DTD/svg10.dtd">

<svg xmlns="http://www.w3.org/2000/svg"
     width="68.9087mm" height="12.4647mm"
     viewBox="0 0 586 106">
  <path id="Selection #4"
        fill="none" stroke="black" stroke-width="1"
        d="M 0.00,0.00
           C 0.00,0.00 0.00,106.00 0.00,106.00
             0.00,106.00 586.00,106.00 586.00,106.00
             586.00,106.00 586.00,0.00 586.00,0.00
             586.00,0.00 0.00,0.00 0.00,0.00 Z
           M 13.00,94.00
           C 17.29,87.05 20.92,91.47 21.00,80.00
             21.00,80.00 21.00,30.00 21.00,30.00
             20.99,26.95 21.27,23.75 19.40,21.13
             16.88,17.59 14.72,18.82 13.00,14.00
             30.38,14.00 59.28,12.06 74.00,21.55
             100.01,38.30 97.23,76.23 69.00,89.10
             53.99,95.95 29.73,94.00 13.00,94.00 Z
           M 129.00,14.00
           C 127.26,18.90 125.04,17.55 123.02,21.13
             121.80,23.29 122.00,26.56 122.00,29.00
             122.00,29.00 122.00,81.00 122.00,81.00
             122.11,86.91 123.10,89.25 129.00,91.00
             129.00,91.00 129.00,94.00 129.00,94.00
             129.00,94.00 99.00,94.00 99.00,94.00
             99.00,94.00 104.27,87.78 104.27,87.78
             104.27,87.78 106.00,79.00 106.00,79.00
             106.00,79.00 106.00,30.00 106.00,30.00
             106.00,30.00 104.83,21.13 104.83,21.13
             104.83,21.13 99.00,14.00 99.00,14.00
             99.00,14.00 129.00,14.00 129.00,14.00 Z
           M 192.00,14.00
           C 192.00,14.00 200.00,37.00 200.00,37.00
             200.00,37.00 185.00,24.48 185.00,24.48
             176.33,19.25 168.59,20.00 159.00,20.00
             159.00,20.00 159.00,51.00 159.00,51.00
             165.24,51.00 173.22,51.36 179.00,48.73
             183.81,46.54 185.20,43.40 190.00,41.00
             190.00,41.00 186.22,53.58 186.22,53.58
             186.22,53.58 190.00,66.00 190.00,66.00
             190.00,66.00 180.00,58.67 180.00,58.67
             173.42,55.21 166.17,56.00 159.00,56.00
             159.00,56.00 159.00,89.00 159.00,89.00
             167.99,89.00 178.93,88.75 187.00,84.35
             192.45,81.38 197.33,73.06 203.00,73.00
             203.00,73.00 194.00,94.00 194.00,94.00
             194.00,94.00 136.00,94.00 136.00,94.00
             138.62,89.75 141.23,90.40 142.85,85.96
             144.43,81.67 144.00,71.91 144.00,67.00
             144.00,67.00 144.00,31.00 144.00,31.00
             143.91,23.87 143.38,19.55 136.00,17.00
             139.04,12.46 146.11,14.00 151.00,14.00
             151.00,14.00 192.00,14.00 192.00,14.00 Z
           M 396.00,14.00
           C 394.30,21.16 385.66,34.15 381.60,41.00
             381.60,41.00 354.00,89.00 354.00,89.00
             363.65,89.00 374.45,88.97 383.00,83.79
             388.57,80.41 391.93,73.94 398.00,72.00
             398.00,72.00 391.87,86.00 391.87,86.00
             391.87,86.00 388.30,93.01 388.30,93.01
             388.30,93.01 382.00,94.00 382.00,94.00
             382.00,94.00 334.00,94.00 334.00,94.00
             335.39,86.68 341.92,77.67 345.72,71.00
             345.72,71.00 365.42,37.00 365.42,37.00
             365.42,37.00 375.00,20.00 375.00,20.00
             366.51,20.00 357.58,19.30 350.00,23.99
             344.50,27.40 341.24,34.01 335.00,36.00
             335.00,36.00 340.80,22.00 340.80,22.00
             340.80,22.00 344.65,14.99 344.65,14.99
             344.65,14.99 351.00,14.00 351.00,14.00
             351.00,14.00 396.00,14.00 396.00,14.00 Z
           M 466.00,37.00
           C 460.07,32.76 455.55,26.81 449.00,23.40
             441.13,19.30 433.51,20.00 425.00,20.00
             425.00,20.00 425.00,51.00 425.00,51.00
             431.20,51.00 439.37,51.43 445.00,48.55
             449.43,46.28 450.45,43.62 456.00,41.00
             456.00,41.00 452.19,53.58 452.19,53.58
             452.19,53.58 456.00,66.00 456.00,66.00
             451.34,63.62 450.36,60.99 446.00,58.67
             439.47,55.21 432.13,56.00 425.00,56.00
             425.00,56.00 425.00,89.00 425.00,89.00
             435.17,89.00 446.17,88.78 455.00,83.04
             459.87,79.87 462.95,74.75 468.00,72.00
             468.00,72.00 460.00,94.00 460.00,94.00
             460.00,94.00 402.00,94.00 402.00,94.00
             402.00,94.00 407.83,87.73 407.83,87.73
             407.83,87.73 409.00,79.00 409.00,79.00
             409.00,79.00 409.00,28.00 409.00,28.00
             409.00,28.00 407.41,20.22 407.41,20.22
             407.41,20.22 402.00,14.00 402.00,14.00
             402.00,14.00 451.00,14.00 451.00,14.00
             451.00,14.00 456.59,15.02 456.59,15.02
             456.59,15.02 460.60,22.00 460.60,22.00
             460.60,22.00 466.00,37.00 466.00,37.00 Z
           M 504.00,14.00
           C 504.00,14.00 498.02,21.13 498.02,21.13
             498.02,21.13 497.00,29.00 497.00,29.00
             497.00,29.00 497.00,80.00 497.00,80.00
             497.00,80.00 498.59,87.78 498.59,87.78
             498.59,87.78 504.00,94.00 504.00,94.00
             504.00,94.00 474.00,94.00 474.00,94.00
             474.00,94.00 479.98,86.89 479.98,86.89
             479.98,86.89 481.00,79.00 481.00,79.00
             481.00,79.00 481.00,30.00 481.00,30.00
             481.00,30.00 479.83,21.13 479.83,21.13
             479.83,21.13 474.00,14.00 474.00,14.00
             474.00,14.00 504.00,14.00 504.00,14.00 Z
           M 573.00,36.00
           C 564.17,31.63 561.97,20.74 547.00,20.00
             547.00,20.00 547.00,70.00 547.00,70.00
             547.00,80.87 544.32,86.64 555.00,92.00
             551.69,94.44 549.97,93.99 546.00,94.00
             546.00,94.00 524.00,94.00 524.00,94.00
             524.00,94.00 529.98,86.89 529.98,86.89
             529.98,86.89 531.00,79.00 531.00,79.00
             531.00,79.00 531.00,20.00 531.00,20.00
             517.86,21.19 515.78,29.00 506.00,36.00
             506.01,30.89 509.10,25.63 511.23,21.00
             512.00,19.33 513.25,16.06 514.70,14.99
             516.27,13.83 519.11,14.01 521.00,14.00
             521.00,14.00 556.00,14.00 556.00,14.00
             558.13,14.00 561.59,13.75 563.36,14.99
             565.26,16.32 566.51,19.91 567.42,22.00
             569.71,27.24 571.92,30.25 573.00,36.00 Z
           M 252.00,26.00
           C 252.00,26.00 253.00,19.00 253.00,19.00
             258.18,20.11 260.47,21.85 262.00,27.00
             262.00,27.00 267.00,17.00 267.00,17.00
             271.86,19.53 272.62,21.71 273.00,27.00
             275.96,21.94 277.11,20.25 283.00,19.00
             283.00,19.00 284.00,26.00 284.00,26.00
             284.00,26.00 289.68,23.10 289.68,23.10
             292.33,21.28 293.26,18.92 297.04,17.82
             301.22,16.60 309.05,19.20 309.60,24.17
             309.85,26.42 307.83,30.74 307.00,33.00
             312.69,36.70 311.65,44.07 312.09,50.00
             312.41,54.34 316.77,65.71 319.51,68.71
             320.80,70.13 321.44,70.20 323.00,71.00
             321.45,63.62 318.77,63.65 316.28,58.00
             313.15,50.91 314.61,44.19 323.00,43.00
             322.88,47.54 323.16,49.50 319.00,52.00
             319.60,54.03 319.90,55.12 320.98,57.00
             323.41,61.21 332.71,73.12 321.98,74.93
             321.98,74.93 317.00,74.93 317.00,74.93
             317.00,74.93 319.00,84.00 319.00,84.00
             319.00,84.00 324.00,80.00 324.00,80.00
             324.00,80.00 324.00,85.00 324.00,85.00
             324.00,85.00 326.00,88.00 326.00,88.00
             326.00,88.00 321.00,88.00 321.00,88.00
             316.87,93.00 312.28,88.95 310.00,94.00
             310.00,94.00 295.00,90.07 295.00,90.07
             287.73,90.28 287.29,94.23 278.00,92.00
             278.00,92.00 275.75,93.65 275.75,93.65
             275.75,93.65 260.21,93.65 260.21,93.65
             260.21,93.65 258.00,92.00 258.00,92.00
             249.90,93.89 249.09,90.99 242.00,90.05
             236.68,89.35 236.29,92.48 231.00,92.88
             227.19,93.17 213.93,88.71 210.00,87.00
             210.00,87.00 212.00,80.00 212.00,80.00
             212.00,80.00 216.00,83.00 216.00,83.00
             216.00,83.00 219.00,74.84 219.00,74.84
             217.62,74.98 215.33,75.03 214.04,74.84
             202.25,71.55 215.76,57.15 216.17,54.09
             216.74,49.78 211.96,50.07 214.00,42.00
             215.37,42.41 216.60,42.66 217.85,43.44
             220.52,45.08 220.94,47.05 221.17,50.00
             221.87,58.62 215.94,61.75 214.13,67.00
             213.71,68.74 213.93,69.32 214.13,71.00
             217.47,68.07 223.07,57.53 223.79,53.00
             225.11,44.69 222.70,38.27 230.00,32.00
             228.84,29.93 226.22,25.55 226.82,23.17
             227.90,18.83 236.02,16.33 239.96,17.51
             244.33,18.83 244.07,21.92 252.00,26.00 Z" />
</svg>
