<?xml version="1.0" encoding="UTF-8" standalone="no"?>
<!DOCTYPE svg PUBLIC "-//W3C//DTD SVG 20010904//EN"
              "http://www.w3.org/TR/2001/REC-SVG-20010904/DTD/svg10.dtd">

<svg xmlns="http://www.w3.org/2000/svg"
     width="77.062mm" height="77.062mm"
     viewBox="0 0 512 512">
  <path id="Selection"
        fill="none" stroke="black" stroke-width="1"
        d="M 234.00,0.21
           C 234.00,0.21 217.00,2.28 217.00,2.28
             200.83,4.58 181.27,9.66 166.00,15.42
             96.20,41.75 40.78,96.83 15.05,167.00
             7.67,187.13 0.25,218.63 0.00,240.00
             -0.21,258.69 -0.54,277.50 2.44,296.00
             13.29,363.51 50.16,424.67 106.00,464.57
             126.51,479.23 149.08,491.02 173.00,499.00
             191.97,505.33 220.07,511.76 240.00,512.00
             240.00,512.00 270.00,512.00 270.00,512.00
             303.40,511.95 350.02,497.95 379.00,481.58
             423.79,456.27 458.15,422.38 482.69,377.00
             497.75,349.16 508.56,313.56 511.08,282.00
             511.08,282.00 512.00,272.00 512.00,272.00
             512.21,253.54 512.31,235.31 509.72,217.00
             502.13,163.51 476.07,113.07 438.00,75.00
             414.47,51.47 391.28,35.35 361.00,21.70
             335.34,10.12 298.21,0.04 270.00,0.21
             270.00,0.21 234.00,0.21 234.00,0.21 Z" />
</svg>
