<svg width="149" height="48" viewBox="0 0 149 48" fill="none" xmlns="http://www.w3.org/2000/svg">
    <path d="M17.603 0h5.98v34.607h-5.98V31.89c-2.166 3.047-4.991 3.376-6.527 3.376-6.39 0-10.752-5.132-10.752-11.335 0-6.312 4.252-11.197 10.56-11.197 1.618 0 4.772.33 6.857 3.376V0h-.138zM6.523 23.931c0 3.376 2.386 5.983 5.87 5.983 3.482 0 5.869-2.607 5.869-5.983 0-3.375-2.386-5.982-5.87-5.982-3.483 0-5.869 2.607-5.869 5.982zM34.142 48h-5.87V13.393h5.98v2.717c.987-1.317 2.934-3.376 6.856-3.376 1.838 0 4.882.44 7.296 2.827 1.536 1.537 3.154 4.254 3.154 8.37 0 4.776-2.057 7.41-3.374 8.59-1.618 1.537-4.031 2.718-7.185 2.718-1.536 0-4.471-.22-6.857-3.376V48zm1.536-28.624c-1.317 1.097-1.948 2.607-1.948 4.583 0 1.948.768 3.595 1.948 4.583.768.659 2.057 1.427 3.922 1.427 1.947 0 3.264-.768 4.032-1.537 1.316-1.207 1.837-2.936 1.837-4.473s-.658-3.376-1.837-4.474c-1.097-.988-2.606-1.537-4.032-1.537-1.646 0-2.853.44-3.922 1.428zM71.223 13.393h5.98v21.214h-5.98V31.89c-2.167 3.047-4.992 3.376-6.528 3.376-6.527 0-10.778-5.105-10.778-11.307 0-6.312 4.25-11.197 10.56-11.197 1.617 0 4.771.329 6.856 3.375V13.42h-.11v-.027zM60.033 23.93c0 3.376 2.386 5.983 5.87 5.983 3.482 0 5.869-2.607 5.869-5.983 0-3.375-2.387-5.982-5.87-5.982s-5.869 2.607-5.869 5.982z" fill="#4C5F71"/>
    <path d="M99.445 29.805a5.83 5.83 0 0 0 5.842-5.846 5.849 5.849 0 0 0-5.842-5.846 5.831 5.831 0 0 0-5.841 5.846 5.831 5.831 0 0 0 5.841 5.846zM121.222 29.805a5.83 5.83 0 0 0 5.842-5.846 5.83 5.83 0 0 0-5.842-5.846 5.831 5.831 0 0 0-5.842 5.846 5.849 5.849 0 0 0 5.842 5.846zM143.027 29.805a5.831 5.831 0 0 0 5.842-5.846 5.831 5.831 0 0 0-5.842-5.846 5.83 5.83 0 0 0-5.842 5.846 5.849 5.849 0 0 0 5.842 5.846z" fill="#BABFC4"/>
</svg>
