<svg width="93" height="48" viewBox="0 0 93 48" fill="none" xmlns="http://www.w3.org/2000/svg">
    <path fill-rule="evenodd" clip-rule="evenodd" d="M.148.014C12.734-.014 25.322.01 37.908.002H67.84c8.156.008 16.313-.016 24.468.012.022 1.675.022 3.35 0 5.025-8.22.029-16.44.004-24.66.012H1.57c-.475.001-.949.015-1.422-.012C.126 3.365.126 1.69.148.014z" fill="#BABFC4"/>
    <path fill-rule="evenodd" clip-rule="evenodd" d="M1.12 12.132c2.722-.02 5.445-.02 8.167 0 .01 1.215.009 2.432 0 3.648a43.11 43.11 0 0 1-2.602-.005c-.005-.434.011-.867-.013-1.3a21.015 21.015 0 0 0-1.844.001c-.013 1.018-.014 2.036 0 3.053.753.03 1.507-.017 2.26.02.01.725.01 1.452 0 2.179-.753.036-1.507-.01-2.26.019-.01 2.049-.016 4.1.003 6.149l.76.031c.037.718.027 1.439.007 2.157-1.492.015-2.986.02-4.479-.002a59.86 59.86 0 0 1 .004-2.153c.266-.012.533-.024.798-.04.014-3.801.008-7.602.003-11.401-.265-.019-.531-.03-.797-.04-.025-.771-.013-1.544-.008-2.316zm34.903-.035c1.134-.045 2.273-.028 3.408-.008.024 3.069-.01 6.138.016 9.207l.465.157c.413-.361.82-.733 1.177-1.143.15-.156-.024-.363-.048-.535a24.668 24.668 0 0 0-.64-.06 52.598 52.598 0 0 1 .001-2.171 270.39 270.39 0 0 1 4.575 0c.015.727.013 1.456.002 2.184-.273.01-.55-.002-.82.041-.24.166-.42.395-.628.595-.48.485-1.003.933-1.46 1.441.574.23 1.302.142 1.757.606.425.442.403 1.081.394 1.644.002.613-.018 1.228.008 1.84.247.012.495.021.743.03.023.72.017 1.44.004 2.161-1.11.013-2.221.013-3.332 0-.027-1.161.013-2.323-.014-3.485-.001-.392-.202-.83-.627-.94-.508-.124-1.04-.06-1.558-.058-.014.764-.018 1.53.002 2.293l.744.03c.023.719.017 1.44.004 2.16-1.39.01-2.782.02-4.172-.004a59.88 59.88 0 0 1 .003-2.153c.266-.012.532-.024.799-.04.01-3.873.013-7.746-.002-11.618a38.712 38.712 0 0 1-.798-.041 63.432 63.432 0 0 1-.003-2.133zm11.794.445c.432-.353 1.02-.442 1.57-.467.573-.013 1.154 0 1.714.136.006.666.028 1.336-.032 2.001-.313.081-.665.093-.933.286-.33.269-.361.719-.371 1.105.001.64-.009 1.281.007 1.922.301.008.602.015.902.03.004.722.003 1.444 0 2.165-.3.015-.601.023-.902.03-.008 2.05-.016 4.101.004 6.151.31.009.622.014.935.019.024.721.017 1.444.004 2.166-1.467.012-2.936.016-4.403-.002-.021-.72-.03-1.44.007-2.16.285-.008.57-.015.855-.025.019-2.05.013-4.1.003-6.15-.288-.007-.577-.013-.865-.021a34.574 34.574 0 0 1 0-2.18c.288-.009.577-.015.865-.022.022-1.162-.005-2.324.009-3.486.01-.548.184-1.13.631-1.498zm22.718 1.093c.849-.003 1.698-.003 2.546 0 .05 1.296-.007 2.594.025 3.891.288.007.576.013.865.022.023.726.023 1.454 0 2.18l-.865.022c-.01 2.05-.015 4.1.003 6.15.291.01.583.015.875.022.045.72.032 1.444.008 2.165-1.552.012-3.104.011-4.655 0a22.505 22.505 0 0 1 .009-2.17c.386-.006.774 0 1.162-.015.018-2.049.011-4.1.003-6.149-.272-.01-.543-.019-.813-.035-.035-.721-.02-1.445-.014-2.166.276-.012.551-.02.826-.028.031-1.296-.025-2.594.025-3.89zm19.005 3.892a1.318 1.318 0 0 1 1.47.165c.656.573.662 1.689 0 2.26a1.314 1.314 0 0 1-1.47.166c-.325-.17-.498-.499-.683-.788-.182.01-.362.024-.54.042a370.893 370.893 0 0 0-.003 6.527c.291.01.582.016.875.023.045.72.032 1.444.008 2.165-1.424.012-2.849.012-4.273 0a21.76 21.76 0 0 1 .01-2.163c.258-.009.518-.016.778-.027.017-2.054.017-4.11 0-6.164-.248-.01-.496-.02-.743-.028a39.392 39.392 0 0 1-.002-2.18 87.49 87.49 0 0 1 3.324 0c.008.303.015.608.037.912.162 0 .324.002.488-.001.175-.342.353-.725.724-.909zm-76.304.011c.56-.306 1.327-.099 1.661.423.46.652.334 1.657-.355 2.118-.424.287-1.037.287-1.454-.013-.248-.173-.375-.45-.563-.672-.168-.044-.344-.011-.515-.009-.033 2.172-.019 4.345-.007 6.517.444.02.89.004 1.333.017.038.72.027 1.444.007 2.165-1.569.016-3.139.016-4.708 0-.02-.718-.03-1.44.006-2.157l.76-.031c.02-2.047.013-4.096.004-6.144-.257-.009-.514-.017-.77-.027a34.502 34.502 0 0 1 0-2.18c1.116-.018 2.232-.013 3.348-.002.006.3.013.6.03.9l.456.039c.202-.347.373-.757.767-.944zm3.486.498c.692-.606 1.721-.756 2.612-.56.466.096.808.435 1.114.76.177-.031.348-.083.512-.149.014-.182.03-.363.046-.544 1.111-.01 2.223-.016 3.335.003.015.712.042 1.427-.018 2.139a39.57 39.57 0 0 0-.751.027c-.012 2.061-.017 4.123.002 6.184l.759.031c.038.718.028 1.439.008 2.157-1.11.014-2.22.023-3.33-.003l-.11-.473c-.171-.032-.364-.15-.52-.017-.566.357-1.21.62-1.892.66-.738.018-1.504-.273-1.965-.839-.46-.554-.615-1.284-.612-1.978.004-1.777 0-3.555.002-5.332.005-.747.223-1.542.808-2.066zm2.494 1.67a1.2 1.2 0 0 0-.718 1.126c-.01 1.196.005 2.392-.006 3.59.005.326-.02.674.137.977.248.491.881.77 1.43.612.514-.136.897-.616.893-1.129.019-1.256-.003-2.512.01-3.768.003-.373-.011-.787-.283-1.08-.338-.411-.97-.555-1.463-.328zm10.554-1.488c.389-.295.759-.659 1.263-.759.644-.125 1.353-.087 1.939.221.599.324.982.924 1.153 1.55.217.701.136 1.44.15 2.162.007 1.501-.016 3.003.01 4.504l.76.031c.036.718.026 1.439.006 2.157-1.123.017-2.247.017-3.37 0-.035-2.445.007-4.892-.02-7.336-.001-.55-.443-1.075-1.021-1.138-.562-.089-1.134.29-1.279.81-.083.317-.058.648-.062.973.014 1.5-.014 3.003.013 4.504.247.01.495.018.743.027.024.72.018 1.442.004 2.162-1.39.01-2.782.02-4.172-.004a59.88 59.88 0 0 1 .004-2.153c.266-.012.531-.024.797-.04.015-2.044.009-4.088.004-6.132-.269-.013-.537-.023-.805-.035a82.05 82.05 0 0 1 0-2.174c1.128-.024 2.258-.015 3.386-.004l.061.523.436.151zm37.155-.728c.568-.245 1.275-.001 1.592.504.44.637.308 1.601-.349 2.059-.433.315-1.083.322-1.512-.002-.236-.19-.388-.452-.565-.688a82.6 82.6 0 0 0-.512.032 475.72 475.72 0 0 0-.004 6.5c.444.03.888.013 1.333.022.044.728.033 1.46.007 2.188-1.568.019-3.14.02-4.708 0a39.487 39.487 0 0 1 .002-2.18c.248-.009.495-.018.743-.03.02-2.046.013-4.094.004-6.14l-.73-.034c-.01-.724-.011-1.448 0-2.173 1.108-.023 2.22-.017 3.329-.003.01.297.015.594.028.89.147.02.294.037.444.057.242-.371.435-.837.898-1.002zm9.726.702c.738-.59 1.729-.777 2.666-.795 1.01-.014 2.077.154 2.908.74.618.427 1.02 1.136 1.01 1.872-.004 1.223.011 2.447-.007 3.67-1.652.026-3.305-.01-4.957.015.005.623-.094 1.273.122 1.873.251.664 1.23.83 1.777.41.308-.238.36-.638.455-.982.865-.05 1.736-.02 2.603-.015.024.682.085 1.441-.366 2.021-.635.833-1.759 1.116-2.776 1.221-1.123.09-2.354.011-3.3-.637-.798-.547-1.12-1.524-1.128-2.43-.004-1.59-.001-3.183-.001-4.773-.002-.819.325-1.66.994-2.19zm2.037 1.682c-.602.51-.406 1.36-.412 2.041.788.01 1.576.01 2.364 0 .006-.539.092-1.104-.096-1.624-.279-.682-1.293-.927-1.856-.417zm-26.83-2.328c1.116-.018 2.234-.014 3.351-.002.023 2.448-.008 4.897.013 7.345-.01.63.582 1.175 1.232 1.165.65.012 1.23-.547 1.22-1.172.01-1.708.007-3.417.001-5.125-.268-.013-.537-.023-.805-.035-.01-.725-.01-1.45 0-2.174 1.135-.024 2.272-.015 3.407-.004.026 2.783-.012 5.568.018 8.353.247.01.495.019.744.027.023.72.017 1.442.003 2.162-1.106.01-2.213.02-3.32-.004-.03-.167-.056-.334-.084-.5-.158-.046-.312-.143-.48-.117-.385.258-.73.604-1.204.71-.8.177-1.734.096-2.37-.444-.67-.57-.923-1.462-.95-2.293-.006-1.896.011-3.79-.006-5.686l-.77-.027a33.84 33.84 0 0 1 0-2.18zM2.331 31.886c1.66-.017 3.32.002 4.98-.006.974-.012 1.997.062 2.859.541.91.48 1.512 1.382 1.754 2.337.337 1.17.161 2.47-.537 3.493-.382.636-.977 1.103-1.534 1.592.394.206.837.355 1.154.672.36.353.507.858.508 1.342.01 1.26-.017 2.519.01 3.778l.82.029c.016.718.012 1.436.003 2.155-1.238.023-2.476.018-3.713.003-.036-1.863.005-3.727-.018-5.59.004-.508-.29-1.035-.811-1.2-.56-.163-1.156-.113-1.732-.096a220.248 220.248 0 0 0 0 4.701c.305.01.61.016.915.025.017.719.012 1.437.004 2.157-1.55.024-3.101.015-4.65.005-.014-.72-.02-1.441.003-2.162.273-.008.546-.019.819-.034.013-3.79.008-7.58.003-11.368-.282-.012-.564-.02-.845-.03-.019-.78-.031-1.563.008-2.343zm3.74 2.366a286.492 286.492 0 0 0 0 4.615c.516.04 1.066.044 1.529-.211a2.262 2.262 0 0 0 1.257-2.021c.003-.733-.1-1.585-.727-2.083-.585-.435-1.373-.293-2.058-.3zm32.475-2.407a91.394 91.394 0 0 1 3.369.002c.03 4.595-.01 9.192.02 13.787.258.011.518.019.779.028.045.719.032 1.442.008 2.163-1.114.01-2.229.014-3.343-.002a24.96 24.96 0 0 1-.073-.445c-.117-.05-.23-.11-.355-.133-.271.097-.486.298-.75.41-.59.263-1.267.43-1.913.272-.645-.135-1.225-.543-1.535-1.104-.305-.531-.394-1.147-.386-1.746.006-1.746.001-3.491.003-5.237.005-.748.223-1.543.808-2.067.69-.596 1.712-.76 2.597-.553.457.1.776.449 1.097.75.147-.032.296-.063.444-.091.056-1.273.024-2.55.016-3.825-.26-.012-.518-.02-.777-.027a21.86 21.86 0 0 1-.009-2.181zm-.796 7.56c-.5.166-.812.664-.796 1.164-.01 1.197.006 2.393-.006 3.59.003.37-.02.774.202 1.097.313.486 1.033.692 1.556.398.424-.21.648-.672.636-1.12-.002-1.352.011-2.704-.007-4.056.016-.752-.845-1.367-1.585-1.072zm23.48-7.559a87.633 87.633 0 0 1 3.37 0c.03 1.625.004 3.251.012 4.877.012.38-.043.767.037 1.142.084.102.193.183.296.269.4-.342.78-.745 1.311-.894a3.157 3.157 0 0 1 1.78.04c.74.244 1.245.91 1.45 1.615.241.722.158 1.488.17 2.234.008 1.502-.015 3.003.011 4.504l.76.031c.037.718.026 1.44.006 2.158-1.123.016-2.247.016-3.37 0-.029-2.2-.007-4.4-.01-6.6-.013-.47.071-.999-.235-1.404-.376-.524-1.223-.644-1.731-.23-.353.245-.49.673-.476 1.076.008 1.654-.01 3.307.008 4.96.252.018.504.03.757.041.048.718.033 1.44.01 2.16-1.386.01-2.771.014-4.156-.003-.02-.719-.03-1.44.007-2.158l.759-.03c.017-3.86.017-7.72 0-11.579-.254-.012-.506-.02-.76-.031a26.664 26.664 0 0 1-.006-2.178zm-33.583 6.106c.398-.337.826-.69 1.369-.772.75-.12 1.602-.033 2.192.468.67.565.934 1.45.962 2.282.01 1.9-.016 3.803.011 5.704.26.011.518.019.779.028.045.719.032 1.442.008 2.163-1.124.012-2.248.012-3.372-.001-.025-2.449.01-4.898-.015-7.346 0-.656-.657-1.211-1.333-1.138-.642.04-1.154.62-1.12 1.233 0 1.684-.01 3.368.005 5.053.266.016.532.028.798.04.018.717.013 1.435.004 2.153-1.39.024-2.782.015-4.172.005-.013-.721-.02-1.442.004-2.161l.743-.029c.02-2.048.013-4.097.004-6.144-.25-.01-.501-.018-.752-.026a55.16 55.16 0 0 1 .001-2.183c1.107-.011 2.216-.018 3.323.004.026.17.05.34.074.512.159.06.321.113.488.155zm17.417-.605c.694-.27 1.523-.31 2.199.032.253.119.469.298.718.426.342.035.552-.23.59-.53.68-.05 1.364-.029 2.046-.012.018.98.014 1.96.002 2.941-.656.013-1.314.021-1.969-.005-.1-.266-.163-.558-.358-.778-.327-.358-.956-.364-1.326-.066-.26.213-.294.588-.183.882.123.313.41.525.692.705.658.411 1.322.814 1.982 1.223.65.404 1.235.946 1.558 1.632.502 1.058.336 2.374-.393 3.299-.639.806-1.83 1.066-2.816.796-.389-.098-.654-.407-1.002-.571-.308-.015-.428.267-.53.494-.714.035-1.429.018-2.142.009a131.302 131.302 0 0 1-.001-3.237c.669-.03 1.34-.02 2.009-.009.11.298.18.615.35.89.309.482 1.04.607 1.535.329.477-.291.545-1.013.149-1.394-1.07-1.098-2.702-1.518-3.71-2.681-.707-.79-.862-1.916-.629-2.908.15-.632.59-1.22 1.229-1.467zm8.59.17c.678-.404 1.537-.455 2.306-.311.478.082.809.437 1.134.75.183.03.35-.063.515-.124.013-.183.027-.365.043-.546a45.558 45.558 0 0 1 2.243-.005c.013 1.385.012 2.77 0 4.155-.752.023-1.507.036-2.259-.008-.04-.544.114-1.17-.263-1.635-.36-.476-1.121-.607-1.62-.257-.358.222-.536.633-.534 1.033-.01 1.165.005 2.331-.005 3.497.002.294-.016.593.06.883.134.492.65.861 1.181.841.48-.007.926-.331 1.092-.757.1-.309.078-.637.097-.955.75-.022 1.5-.017 2.251-.004-.013.862.16 1.815-.363 2.578-.6.898-1.765 1.221-2.812 1.315-1.041.068-2.177.016-3.071-.56-.72-.47-1.014-1.338-1.014-2.14 0-1.84-.001-3.681.001-5.52.016-.824.26-1.752 1.017-2.23zm19.147.202c.695-.56 1.69-.699 2.556-.498.462.099.782.453 1.102.76a8.61 8.61 0 0 0 .468-.152c.011-.181.026-.363.041-.543a71.432 71.432 0 0 1 3.351.005c.001.708.01 1.417-.006 2.126a31.2 31.2 0 0 0-.778.04 630.38 630.38 0 0 0 .002 6.166c.251.019.504.03.757.043.049.717.033 1.439.01 2.159-1.114.01-2.23.013-3.344-.002-.025-.149-.05-.298-.072-.444-.118-.05-.232-.109-.356-.134-.25.083-.448.269-.686.378-.65.307-1.418.486-2.126.267a2.281 2.281 0 0 1-1.528-1.306c-.356-.795-.251-1.676-.264-2.517 0-1.408-.002-2.815 0-4.223.002-.775.24-1.604.873-2.125zm2.531 1.686c-.5.166-.812.666-.797 1.164-.01 1.228.006 2.455-.005 3.683-.004.382.005.806.282 1.11.368.453 1.105.572 1.591.225.39-.248.541-.715.523-1.146-.015-1.35.022-2.702-.017-4.05-.032-.722-.875-1.263-1.577-.986zM13.34 37.28c1.117-.012 2.233-.015 3.35.002.035 2.445-.004 4.891.019 7.337.002.44.262.872.685 1.056.496.244 1.142.087 1.478-.334.268-.299.276-.715.273-1.087-.012-1.587.005-3.172-.008-4.758-.262-.014-.524-.027-.785-.044-.003-.72-.003-1.441 0-2.162 1.129-.035 2.26-.017 3.387-.01.026 2.784-.012 5.569.019 8.353l.743.028c.024.72.017 1.441.003 2.162-1.106.01-2.213.02-3.32-.005l-.084-.498c-.157-.047-.312-.144-.48-.119-.386.258-.73.604-1.205.71-.8.177-1.732.096-2.368-.444-.67-.57-.923-1.461-.95-2.293-.007-1.894.011-3.79-.007-5.685-.25-.01-.5-.018-.751-.026a55.16 55.16 0 0 1 0-2.183zm68.086 0c1.117-.012 2.234-.015 3.351.002.034 2.446-.005 4.892.018 7.337-.016.624.554 1.187 1.207 1.172.65.011 1.23-.548 1.22-1.172.012-1.708.007-3.415.002-5.123-.263-.014-.524-.027-.785-.044-.004-.72-.004-1.441 0-2.162 1.128-.035 2.259-.017 3.387-.01.026 2.784-.012 5.569.017 8.352.253.011.506.02.76.032.038.718.028 1.438.007 2.157-1.113.015-2.226.02-3.339-.003-.03-.167-.057-.333-.084-.498-.235-.111-.526-.2-.71.042-.713.687-1.847.785-2.76.453-.705-.269-1.175-.92-1.369-1.604-.227-.695-.156-1.429-.164-2.145-.006-1.526.01-3.052-.007-4.577-.252-.01-.502-.018-.752-.026a53.49 53.49 0 0 1 .001-2.183z" fill="#4C5F71"/>
</svg>
