<?xml version="1.0" encoding="UTF-8" standalone="no"?>
<!DOCTYPE svg PUBLIC "-//W3C//DTD SVG 20010904//EN"
              "http://www.w3.org/TR/2001/REC-SVG-20010904/DTD/svg10.dtd">

<svg xmlns="http://www.w3.org/2000/svg"
     width="135.45mm" height="135.45mm"
     viewBox="0 0 512 512">
  <path id="Selection #1"
        fill="#1f2933" stroke="" stroke-width="1"
        d="M 99.00,282.00
           C 99.00,282.00 512.00,282.00 512.00,282.00
             512.00,282.00 512.00,230.00 512.00,230.00
             512.00,230.00 99.00,230.00 99.00,230.00
             99.00,230.00 162.00,167.00 162.00,167.00
             162.00,167.00 200.00,129.00 200.00,129.00
             200.00,129.00 229.00,100.00 229.00,100.00
             231.26,97.74 239.01,90.63 239.66,88.00
             240.49,84.68 236.09,81.11 234.00,79.00
             234.00,79.00 213.00,58.00 213.00,58.00
             210.89,55.91 207.32,51.51 204.00,52.34
             201.33,53.01 193.37,61.63 191.00,64.00
             191.00,64.00 160.00,95.00 160.00,95.00
             160.00,95.00 46.00,209.00 46.00,209.00
             46.00,209.00 12.00,243.00 12.00,243.00
             9.55,245.45 1.20,252.78 1.20,256.00
             1.20,259.22 9.55,266.55 12.00,269.00
             12.00,269.00 46.00,303.00 46.00,303.00
             46.00,303.00 160.00,417.00 160.00,417.00
             160.00,417.00 191.00,448.00 191.00,448.00
             193.37,450.37 201.33,458.99 204.00,459.66
             207.32,460.49 210.89,456.09 213.00,454.00
             213.00,454.00 234.00,433.00 234.00,433.00
             236.09,430.89 240.49,427.32 239.66,424.00
             239.01,421.37 231.26,414.26 229.00,412.00
             229.00,412.00 200.00,383.00 200.00,383.00
             200.00,383.00 162.00,345.00 162.00,345.00
             162.00,345.00 99.00,282.00 99.00,282.00 Z" />
</svg>
