<?xml version="1.0" encoding="UTF-8" standalone="no"?>
<!DOCTYPE svg PUBLIC "-//W3C//DTD SVG 20010904//EN"
              "http://www.w3.org/TR/2001/REC-SVG-20010904/DTD/svg10.dtd">

<svg xmlns="http://www.w3.org/2000/svg"
     viewBox="0 0 512 512">
  <path id="Selection #1"
        fill="#4c5f71" stroke="black" stroke-width="1"
        d="M 35.00,76.09
           C 30.05,77.63 25.35,79.40 21.00,82.07
             10.75,88.36 2.71,99.03 0.12,111.00
             0.12,111.00 0.12,130.00 0.12,130.00
             0.12,130.00 0.12,156.00 0.12,156.00
             0.12,156.00 0.12,393.00 0.12,393.00
             0.04,416.86 19.13,435.96 43.00,436.00
             43.00,436.00 108.00,436.00 108.00,436.00
             108.00,436.00 469.00,436.00 469.00,436.00
             491.29,435.97 511.73,417.81 512.00,395.00
             512.00,395.00 512.00,297.00 512.00,297.00
             512.00,297.00 512.00,119.00 512.00,119.00
             511.96,95.11 492.89,76.04 469.00,76.09
             469.00,76.09 405.00,76.09 405.00,76.09
             405.00,76.09 158.00,76.09 158.00,76.09
             158.00,76.09 78.00,76.09 78.00,76.09
             78.00,76.09 35.00,76.09 35.00,76.09 Z
           M 459.00,106.00
           C 454.73,111.97 446.44,119.56 441.00,125.00
             441.00,125.00 409.00,157.00 409.00,157.00
             409.00,157.00 310.00,256.00 310.00,256.00
             310.00,256.00 275.00,291.00 275.00,291.00
             269.37,296.63 264.67,302.92 256.00,302.92
             247.33,302.92 242.63,296.63 237.00,291.00
             237.00,291.00 202.00,256.00 202.00,256.00
             202.00,256.00 103.00,157.00 103.00,157.00
             103.00,157.00 71.00,125.00 71.00,125.00
             65.56,119.56 57.27,111.97 53.00,106.00
             53.00,106.00 459.00,106.00 459.00,106.00 Z
           M 31.00,128.00
           C 31.00,128.00 126.00,223.00 126.00,223.00
             126.00,223.00 149.00,246.00 149.00,246.00
             151.09,248.09 156.80,253.04 156.80,256.00
             156.80,258.96 151.09,263.91 149.00,266.00
             149.00,266.00 126.00,289.00 126.00,289.00
             126.00,289.00 64.00,351.00 64.00,351.00
             56.80,358.20 36.70,379.21 30.00,384.00
             30.00,384.00 30.00,204.00 30.00,204.00
             30.00,204.00 30.00,152.00 30.00,152.00
             30.00,152.00 31.00,128.00 31.00,128.00 Z
           M 482.00,128.00
           C 482.00,128.00 482.00,384.00 482.00,384.00
             475.30,379.21 455.20,358.20 448.00,351.00
             448.00,351.00 386.00,289.00 386.00,289.00
             386.00,289.00 363.00,266.00 363.00,266.00
             360.91,263.91 355.20,258.96 355.20,256.00
             355.20,253.04 360.91,248.09 363.00,246.00
             363.00,246.00 386.00,223.00 386.00,223.00
             386.00,223.00 448.00,161.00 448.00,161.00
             455.20,153.80 475.30,132.79 482.00,128.00 Z
           M 181.00,278.00
           C 181.00,278.00 213.00,311.00 213.00,311.00
             218.88,316.88 225.75,323.83 233.00,327.74
             247.11,335.98 266.05,335.94 280.00,327.74
             286.47,323.62 294.58,315.42 300.00,310.00
             300.00,310.00 331.00,278.00 331.00,278.00
             331.00,278.00 354.00,300.00 354.00,300.00
             354.00,300.00 395.00,341.00 395.00,341.00
             395.00,341.00 436.00,382.00 436.00,382.00
             436.00,382.00 459.00,406.00 459.00,406.00
             459.00,406.00 53.00,406.00 53.00,406.00
             53.00,406.00 76.00,382.00 76.00,382.00
             76.00,382.00 117.00,341.00 117.00,341.00
             117.00,341.00 158.00,300.00 158.00,300.00
             158.00,300.00 181.00,278.00 181.00,278.00 Z" />
</svg>
