<svg  viewBox="0 0 87 68" fill="none" xmlns="http://www.w3.org/2000/svg">
<path d="M2.592 67.104C0.864 67.104 0 66.24 0 64.512V41.472C0 41.088 0.288 40.32 0.864001 39.168L22.464 2.592C23.616 0.864 25.44 0 27.936 0H32.832C33.6 0 34.176 0.384001 34.56 1.152C35.136 1.72801 35.328 2.40001 35.136 3.16801L22.176 30.816C21.792 32.352 21.6 33.312 21.6 33.696C21.6 35.04 22.368 35.808 23.904 36H28.8C30.144 36.192 31.008 36.576 31.392 37.152C31.968 37.536 32.256 38.304 32.256 39.456V64.224C32.256 66.144 31.392 67.104 29.664 67.104H2.592ZM53.568 67.104C51.84 67.104 50.976 66.24 50.976 64.512V41.472C50.976 40.704 51.168 39.936 51.552 39.168L73.152 2.592C74.304 0.864 76.224 0 78.912 0H83.52C84.48 0 85.152 0.384001 85.536 1.152C86.112 1.72801 86.208 2.40001 85.824 3.16801L73.152 30.816C72.576 31.968 72.288 33.024 72.288 33.984C72.288 34.944 73.056 35.616 74.592 36H79.488C80.832 36.192 81.696 36.576 82.08 37.152C82.656 37.536 82.944 38.304 82.944 39.456V64.224C82.944 66.144 82.08 67.104 80.352 67.104H53.568Z" fill="#BEE4EF"/>
</svg>
