<?xml version="1.0" encoding="UTF-8" standalone="no"?>
<!DOCTYPE svg PUBLIC "-//W3C//DTD SVG 20010904//EN"
              "http://www.w3.org/TR/2001/REC-SVG-20010904/DTD/svg10.dtd">

<svg xmlns="http://www.w3.org/2000/svg"
     width="135.45mm" height="135.45mm"
     viewBox="0 0 512 512">
  <path id="Selection #2"
        fill="#1f2933" stroke="black" stroke-width="1"
        d="M 413.00,230.00
           C 413.00,230.00 0.00,230.00 0.00,230.00
             0.00,230.00 0.00,282.00 0.00,282.00
             0.00,282.00 413.00,282.00 413.00,282.00
             413.00,282.00 350.00,345.00 350.00,345.00
             350.00,345.00 312.00,383.00 312.00,383.00
             312.00,383.00 283.00,412.00 283.00,412.00
             280.74,414.26 272.99,421.37 272.34,424.00
             271.51,427.32 275.91,430.89 278.00,433.00
             278.00,433.00 299.00,454.00 299.00,454.00
             301.11,456.09 304.68,460.49 308.00,459.66
             310.67,458.99 318.63,450.37 321.00,448.00
             321.00,448.00 352.00,417.00 352.00,417.00
             352.00,417.00 466.00,303.00 466.00,303.00
             466.00,303.00 500.00,269.00 500.00,269.00
             502.45,266.55 510.80,259.22 510.80,256.00
             510.80,252.78 502.45,245.45 500.00,243.00
             500.00,243.00 466.00,209.00 466.00,209.00
             466.00,209.00 352.00,95.00 352.00,95.00
             352.00,95.00 321.00,64.00 321.00,64.00
             318.63,61.63 310.67,53.01 308.00,52.34
             304.68,51.51 301.11,55.91 299.00,58.00
             299.00,58.00 278.00,79.00 278.00,79.00
             275.91,81.11 271.51,84.68 272.34,88.00
             272.99,90.63 280.74,97.74 283.00,100.00
             283.00,100.00 312.00,129.00 312.00,129.00
             312.00,129.00 350.00,167.00 350.00,167.00
             350.00,167.00 413.00,230.00 413.00,230.00 Z" />
</svg>
