<?xml version="1.0" encoding="UTF-8" standalone="no"?>
<!DOCTYPE svg PUBLIC "-//W3C//DTD SVG 20010904//EN"
              "http://www.w3.org/TR/2001/REC-SVG-20010904/DTD/svg10.dtd">

<svg xmlns="http://www.w3.org/2000/svg"
     viewBox="0 0 512 512">
  <path id="Selection #3"
        fill="#1f2933" stroke="black" stroke-width="1"
        d="M 395.00,86.00
           C 395.00,86.00 248.00,233.00 248.00,233.00
             248.00,233.00 239.00,242.00 239.00,242.00
             234.32,246.68 218.71,261.62 215.99,266.00
             210.80,274.38 212.16,285.95 219.10,292.90
             226.05,299.84 237.62,301.20 246.00,296.01
             250.38,293.29 265.32,277.68 270.00,273.00
             270.00,273.00 279.00,264.00 279.00,264.00
             279.00,264.00 426.00,117.00 426.00,117.00
             426.00,117.00 426.00,187.00 426.00,187.00
             426.01,192.60 426.29,198.02 429.22,203.00
             436.89,216.01 454.93,217.42 464.66,205.96
             469.45,200.32 469.99,194.05 470.00,187.00
             470.00,187.00 470.00,69.00 470.00,69.00
             469.97,50.36 461.64,42.03 443.00,42.00
             443.00,42.00 325.00,42.00 325.00,42.00
             318.49,42.01 312.43,42.45 307.01,46.56
             295.76,55.09 295.27,71.52 306.04,80.66
             310.94,84.82 316.76,85.92 323.00,86.00
             323.00,86.00 395.00,86.00 395.00,86.00 Z
           M 103.00,85.14
           C 65.94,91.50 42.06,119.42 42.00,157.00
             42.00,157.00 42.00,398.00 42.00,398.00
             42.06,439.36 72.65,469.94 114.00,470.00
             114.00,470.00 355.00,470.00 355.00,470.00
             394.23,469.94 426.94,441.10 427.00,401.00
             427.00,401.00 427.00,250.00 427.00,250.00
             426.99,244.63 426.98,240.77 424.01,236.00
             416.27,223.57 397.91,221.79 388.53,233.09
             384.20,238.31 384.01,242.61 384.00,249.00
             384.00,249.00 384.00,392.00 384.00,392.00
             383.99,396.88 383.62,402.30 382.22,407.00
             381.04,410.93 378.64,414.94 375.82,417.91
             366.51,427.67 356.15,426.00 344.00,426.00
             344.00,426.00 320.00,426.00 320.00,426.00
             320.00,426.00 115.00,426.00 115.00,426.00
             110.71,425.99 108.16,426.10 104.00,424.61
             95.27,421.49 87.88,413.22 86.08,404.00
             86.08,404.00 86.08,387.00 86.08,387.00
             86.08,387.00 86.08,364.00 86.08,364.00
             86.08,364.00 86.08,158.00 86.08,158.00
             86.03,136.97 99.13,128.03 119.00,128.00
             119.00,128.00 243.00,128.00 243.00,128.00
             250.47,127.99 255.15,127.42 260.67,121.70
             269.96,112.08 267.16,94.94 256.00,87.99
             251.23,85.02 247.37,85.01 242.00,85.14
             242.00,85.14 151.00,85.14 151.00,85.14
             151.00,85.14 103.00,85.14 103.00,85.14 Z" />
</svg>
